<svg width="512" height="512" viewBox="0 0 512 512" fill="none" xmlns="http://www.w3.org/2000/svg">
  <!-- Background -->
  <rect width="512" height="512" rx="64" fill="#667eea"/>
  
  <!-- Cloud -->
  <path d="M128 256C128 202.98 170.98 160 224 160C238.46 160 252.8 164.73 265.07 173.33C275.2 134.4 310.4 106.67 346.67 106.67C393.8 106.67 432 144.87 432 192C432 196.8 431.73 201.6 431.2 206.4C448.53 215.47 461.33 233.6 461.33 257.6C461.33 289.6 435.73 315.2 403.73 315.2H107.73C75.73 315.2 50.13 289.6 50.13 257.6C50.13 225.6 75.73 200 107.73 200C112.53 200 117.33 200.27 122.13 200.8C125.87 187.2 139.2 176 154.67 176C173.87 176 189.33 191.47 189.33 210.67C189.33 229.87 173.87 245.33 154.67 245.33C151.47 245.33 148.27 245.07 145.07 244.53C138.13 247.47 128 251.2 128 256Z" fill="white" opacity="0.9"/>
  
  <!-- Sun -->
  <circle cx="320" cy="192" r="42.67" fill="#FFD700"/>
  <path d="M320 106.67L320 85.33M320 298.67L320 320M213.33 192L192 192M448 192L469.33 192M245.33 128L224 106.67M416 277.33M245.33 256L224 277.33M416 128L397.33 106.67" stroke="#FFD700" stroke-width="8" stroke-linecap="round"/>
  
  <!-- Temperature -->
  <rect x="373.33" y="266.67" width="21.33" height="85.33" rx="10.67" fill="white"/>
  <rect x="362.67" y="320" width="42.67" height="10.67" rx="5.33" fill="white"/>
  <text x="256" y="373.33" text-anchor="middle" fill="white" font-family="Arial, sans-serif" font-size="37.33" font-weight="bold">°C</text>
</svg>
