<svg width="192" height="192" viewBox="0 0 192 192" fill="none" xmlns="http://www.w3.org/2000/svg">
  <!-- Background -->
  <rect width="192" height="192" rx="24" fill="#667eea"/>
  
  <!-- Cloud -->
  <path d="M48 96C48 76.118 64.118 60 84 60C89.523 60 94.8 61.4 99.4 63.8C103.2 50.4 115.8 40 130 40C147.674 40 162 54.326 162 72C162 73.8 161.8 75.6 161.4 77.4C168.2 80.8 173 88.2 173 96.6C173 108.6 163.6 118 151.6 118H40.4C28.4 118 19 108.6 19 96.6C19 84.6 28.4 75.2 40.4 75.2C42.2 75.2 44 75.4 45.8 75.8C47.2 70.2 52.2 66 58 66C64.6 66 70 71.4 70 78C70 84.6 64.6 90 58 90C56.8 90 55.6 89.8 54.4 89.4C51.8 92.8 48 95.2 48 96Z" fill="white" opacity="0.9"/>
  
  <!-- Sun -->
  <circle cx="120" cy="72" r="16" fill="#FFD700"/>
  <path d="M120 40L120 32M120 112L120 120M80 72L72 72M168 72L176 72M95.5 48.5L90.5 43.5M149.5 95.5L154.5 100.5M95.5 95.5L90.5 100.5M149.5 48.5L154.5 43.5" stroke="#FFD700" stroke-width="3" stroke-linecap="round"/>
  
  <!-- Temperature -->
  <rect x="140" y="100" width="8" height="32" rx="4" fill="white"/>
  <rect x="136" y="120" width="16" height="4" rx="2" fill="white"/>
  <text x="96" y="140" text-anchor="middle" fill="white" font-family="Arial, sans-serif" font-size="14" font-weight="bold">°C</text>
</svg>
